<mxfile host="app.diagrams.net" modified="2024-05-05T18:36:24.379Z" agent="Mozilla/5.0 (Windows NT 10.0; Win64; x64) AppleWebKit/537.36 (KHTML, like Gecko) Chrome/124.0.0.0 Safari/537.36" etag="HMrkglPEblZ6gukaTdSw" version="24.3.1" type="device">
  <diagram name="PÃ¡gina-1" id="mzLXtas8IqGuYamI62SK">
    <mxGraphModel dx="1050" dy="565" grid="1" gridSize="10" guides="1" tooltips="1" connect="1" arrows="1" fold="1" page="1" pageScale="1" pageWidth="827" pageHeight="1169" math="0" shadow="0">
      <root>
        <mxCell id="0" />
        <mxCell id="1" parent="0" />
        <mxCell id="lGUv_89maZl6cJJZqPwt-1" value="Usuarios" style="swimlane;fontStyle=0;childLayout=stackLayout;horizontal=1;startSize=26;horizontalStack=0;resizeParent=1;resizeParentMax=0;resizeLast=0;collapsible=1;marginBottom=0;align=center;fontSize=14;" vertex="1" parent="1">
          <mxGeometry x="334" y="20" width="160" height="176" as="geometry" />
        </mxCell>
        <mxCell id="lGUv_89maZl6cJJZqPwt-2" value="ID" style="text;strokeColor=none;fillColor=none;spacingLeft=4;spacingRight=4;overflow=hidden;rotatable=0;points=[[0,0.5],[1,0.5]];portConstraint=eastwest;fontSize=12;whiteSpace=wrap;html=1;" vertex="1" parent="lGUv_89maZl6cJJZqPwt-1">
          <mxGeometry y="26" width="160" height="30" as="geometry" />
        </mxCell>
        <mxCell id="lGUv_89maZl6cJJZqPwt-3" value="USUARIO" style="text;strokeColor=none;fillColor=none;spacingLeft=4;spacingRight=4;overflow=hidden;rotatable=0;points=[[0,0.5],[1,0.5]];portConstraint=eastwest;fontSize=12;whiteSpace=wrap;html=1;" vertex="1" parent="lGUv_89maZl6cJJZqPwt-1">
          <mxGeometry y="56" width="160" height="30" as="geometry" />
        </mxCell>
        <mxCell id="lGUv_89maZl6cJJZqPwt-4" value="EMAIL" style="text;strokeColor=none;fillColor=none;spacingLeft=4;spacingRight=4;overflow=hidden;rotatable=0;points=[[0,0.5],[1,0.5]];portConstraint=eastwest;fontSize=12;whiteSpace=wrap;html=1;" vertex="1" parent="lGUv_89maZl6cJJZqPwt-1">
          <mxGeometry y="86" width="160" height="30" as="geometry" />
        </mxCell>
        <mxCell id="lGUv_89maZl6cJJZqPwt-5" value="CONTRASENA" style="text;strokeColor=none;fillColor=none;spacingLeft=4;spacingRight=4;overflow=hidden;rotatable=0;points=[[0,0.5],[1,0.5]];portConstraint=eastwest;fontSize=12;whiteSpace=wrap;html=1;" vertex="1" parent="lGUv_89maZl6cJJZqPwt-1">
          <mxGeometry y="116" width="160" height="30" as="geometry" />
        </mxCell>
        <mxCell id="lGUv_89maZl6cJJZqPwt-6" value="ROL&lt;div&gt;&lt;br&gt;&lt;/div&gt;" style="text;strokeColor=none;fillColor=none;spacingLeft=4;spacingRight=4;overflow=hidden;rotatable=0;points=[[0,0.5],[1,0.5]];portConstraint=eastwest;fontSize=12;whiteSpace=wrap;html=1;" vertex="1" parent="lGUv_89maZl6cJJZqPwt-1">
          <mxGeometry y="146" width="160" height="30" as="geometry" />
        </mxCell>
        <mxCell id="lGUv_89maZl6cJJZqPwt-26" style="edgeStyle=orthogonalEdgeStyle;rounded=0;orthogonalLoop=1;jettySize=auto;html=1;exitX=0;exitY=1;exitDx=0;exitDy=0;exitPerimeter=0;entryX=0;entryY=0;entryDx=0;entryDy=0;curved=1;" edge="1" parent="1" source="lGUv_89maZl6cJJZqPwt-7" target="lGUv_89maZl6cJJZqPwt-17">
          <mxGeometry relative="1" as="geometry">
            <Array as="points">
              <mxPoint x="100" y="130" />
              <mxPoint x="100" y="510" />
            </Array>
          </mxGeometry>
        </mxCell>
        <mxCell id="lGUv_89maZl6cJJZqPwt-7" value="EDITOR&lt;div&gt;&lt;br&gt;&lt;/div&gt;" style="shape=umlActor;verticalLabelPosition=bottom;verticalAlign=top;html=1;" vertex="1" parent="1">
          <mxGeometry x="130" y="70" width="30" height="60" as="geometry" />
        </mxCell>
        <mxCell id="lGUv_89maZl6cJJZqPwt-34" style="edgeStyle=orthogonalEdgeStyle;rounded=0;orthogonalLoop=1;jettySize=auto;html=1;entryX=1;entryY=0.5;entryDx=0;entryDy=0;curved=1;" edge="1" parent="1" source="lGUv_89maZl6cJJZqPwt-8" target="lGUv_89maZl6cJJZqPwt-13">
          <mxGeometry relative="1" as="geometry">
            <Array as="points">
              <mxPoint x="650" y="100" />
              <mxPoint x="650" y="380" />
            </Array>
          </mxGeometry>
        </mxCell>
        <mxCell id="lGUv_89maZl6cJJZqPwt-8" value="&lt;div&gt;VALIDADOR&lt;/div&gt;" style="shape=umlActor;verticalLabelPosition=bottom;verticalAlign=top;html=1;" vertex="1" parent="1">
          <mxGeometry x="690" y="70" width="30" height="60" as="geometry" />
        </mxCell>
        <mxCell id="lGUv_89maZl6cJJZqPwt-9" style="edgeStyle=orthogonalEdgeStyle;rounded=0;orthogonalLoop=1;jettySize=auto;html=1;entryX=1;entryY=0.3333333333333333;entryDx=0;entryDy=0;entryPerimeter=0;" edge="1" parent="1" source="lGUv_89maZl6cJJZqPwt-3" target="lGUv_89maZl6cJJZqPwt-7">
          <mxGeometry relative="1" as="geometry" />
        </mxCell>
        <mxCell id="lGUv_89maZl6cJJZqPwt-10" style="edgeStyle=orthogonalEdgeStyle;rounded=0;orthogonalLoop=1;jettySize=auto;html=1;exitX=1;exitY=0.5;exitDx=0;exitDy=0;entryX=0;entryY=0.3333333333333333;entryDx=0;entryDy=0;entryPerimeter=0;" edge="1" parent="1" source="lGUv_89maZl6cJJZqPwt-3" target="lGUv_89maZl6cJJZqPwt-8">
          <mxGeometry relative="1" as="geometry" />
        </mxCell>
        <mxCell id="lGUv_89maZl6cJJZqPwt-12" value="BORRADOR" style="ellipse;whiteSpace=wrap;html=1;align=center;fontStyle=4;" vertex="1" parent="1">
          <mxGeometry x="350" y="240" width="100" height="40" as="geometry" />
        </mxCell>
        <mxCell id="lGUv_89maZl6cJJZqPwt-13" value="PARA VALIDAR" style="ellipse;whiteSpace=wrap;html=1;align=center;fontStyle=4;" vertex="1" parent="1">
          <mxGeometry x="364" y="360" width="100" height="40" as="geometry" />
        </mxCell>
        <mxCell id="lGUv_89maZl6cJJZqPwt-32" style="edgeStyle=orthogonalEdgeStyle;rounded=0;orthogonalLoop=1;jettySize=auto;html=1;exitX=0.25;exitY=0;exitDx=0;exitDy=0;entryX=0;entryY=1;entryDx=0;entryDy=0;curved=1;" edge="1" parent="1" source="lGUv_89maZl6cJJZqPwt-17" target="lGUv_89maZl6cJJZqPwt-12">
          <mxGeometry relative="1" as="geometry">
            <Array as="points">
              <mxPoint x="320" y="510" />
              <mxPoint x="320" y="274" />
            </Array>
          </mxGeometry>
        </mxCell>
        <mxCell id="lGUv_89maZl6cJJZqPwt-17" value="Noticias" style="swimlane;fontStyle=0;childLayout=stackLayout;horizontal=1;startSize=26;horizontalStack=0;resizeParent=1;resizeParentMax=0;resizeLast=0;collapsible=1;marginBottom=0;align=center;fontSize=14;" vertex="1" parent="1">
          <mxGeometry x="320" y="510" width="160" height="236" as="geometry" />
        </mxCell>
        <mxCell id="lGUv_89maZl6cJJZqPwt-18" value="ID" style="text;strokeColor=none;fillColor=none;spacingLeft=4;spacingRight=4;overflow=hidden;rotatable=0;points=[[0,0.5],[1,0.5]];portConstraint=eastwest;fontSize=12;whiteSpace=wrap;html=1;" vertex="1" parent="lGUv_89maZl6cJJZqPwt-17">
          <mxGeometry y="26" width="160" height="30" as="geometry" />
        </mxCell>
        <mxCell id="lGUv_89maZl6cJJZqPwt-19" value="TITULO" style="text;strokeColor=none;fillColor=none;spacingLeft=4;spacingRight=4;overflow=hidden;rotatable=0;points=[[0,0.5],[1,0.5]];portConstraint=eastwest;fontSize=12;whiteSpace=wrap;html=1;" vertex="1" parent="lGUv_89maZl6cJJZqPwt-17">
          <mxGeometry y="56" width="160" height="30" as="geometry" />
        </mxCell>
        <mxCell id="lGUv_89maZl6cJJZqPwt-20" value="DESCRIPCION" style="text;strokeColor=none;fillColor=none;spacingLeft=4;spacingRight=4;overflow=hidden;rotatable=0;points=[[0,0.5],[1,0.5]];portConstraint=eastwest;fontSize=12;whiteSpace=wrap;html=1;" vertex="1" parent="lGUv_89maZl6cJJZqPwt-17">
          <mxGeometry y="86" width="160" height="30" as="geometry" />
        </mxCell>
        <mxCell id="lGUv_89maZl6cJJZqPwt-21" value="FECHA" style="text;strokeColor=none;fillColor=none;spacingLeft=4;spacingRight=4;overflow=hidden;rotatable=0;points=[[0,0.5],[1,0.5]];portConstraint=eastwest;fontSize=12;whiteSpace=wrap;html=1;" vertex="1" parent="lGUv_89maZl6cJJZqPwt-17">
          <mxGeometry y="116" width="160" height="30" as="geometry" />
        </mxCell>
        <mxCell id="lGUv_89maZl6cJJZqPwt-22" value="&lt;div&gt;ESTADO&lt;/div&gt;" style="text;strokeColor=none;fillColor=none;spacingLeft=4;spacingRight=4;overflow=hidden;rotatable=0;points=[[0,0.5],[1,0.5]];portConstraint=eastwest;fontSize=12;whiteSpace=wrap;html=1;" vertex="1" parent="lGUv_89maZl6cJJZqPwt-17">
          <mxGeometry y="146" width="160" height="30" as="geometry" />
        </mxCell>
        <mxCell id="lGUv_89maZl6cJJZqPwt-23" value="&lt;div&gt;CATEGORIA&lt;/div&gt;" style="text;strokeColor=none;fillColor=none;spacingLeft=4;spacingRight=4;overflow=hidden;rotatable=0;points=[[0,0.5],[1,0.5]];portConstraint=eastwest;fontSize=12;whiteSpace=wrap;html=1;" vertex="1" parent="lGUv_89maZl6cJJZqPwt-17">
          <mxGeometry y="176" width="160" height="30" as="geometry" />
        </mxCell>
        <mxCell id="lGUv_89maZl6cJJZqPwt-24" value="&lt;div&gt;IMAGEN&amp;nbsp; (OPCIONAL)&lt;/div&gt;" style="text;strokeColor=none;fillColor=none;spacingLeft=4;spacingRight=4;overflow=hidden;rotatable=0;points=[[0,0.5],[1,0.5]];portConstraint=eastwest;fontSize=12;whiteSpace=wrap;html=1;" vertex="1" parent="lGUv_89maZl6cJJZqPwt-17">
          <mxGeometry y="206" width="160" height="30" as="geometry" />
        </mxCell>
        <mxCell id="lGUv_89maZl6cJJZqPwt-27" value="CREA&amp;nbsp;&lt;div&gt;&lt;br&gt;&lt;/div&gt;" style="text;html=1;align=center;verticalAlign=middle;resizable=0;points=[];autosize=1;strokeColor=none;fillColor=none;" vertex="1" parent="1">
          <mxGeometry x="90" y="330" width="60" height="40" as="geometry" />
        </mxCell>
        <mxCell id="lGUv_89maZl6cJJZqPwt-28" value="EDITA LAS&amp;nbsp;&lt;div&gt;PROPIAS&lt;/div&gt;" style="text;html=1;align=center;verticalAlign=middle;resizable=0;points=[];autosize=1;strokeColor=none;fillColor=none;" vertex="1" parent="1">
          <mxGeometry x="140" y="430" width="90" height="40" as="geometry" />
        </mxCell>
        <mxCell id="lGUv_89maZl6cJJZqPwt-30" style="edgeStyle=orthogonalEdgeStyle;rounded=0;orthogonalLoop=1;jettySize=auto;html=1;entryX=0.364;entryY=1.045;entryDx=0;entryDy=0;entryPerimeter=0;" edge="1" parent="1" source="lGUv_89maZl6cJJZqPwt-17" target="lGUv_89maZl6cJJZqPwt-13">
          <mxGeometry relative="1" as="geometry" />
        </mxCell>
        <mxCell id="lGUv_89maZl6cJJZqPwt-31" value="GUARDA" style="text;html=1;align=center;verticalAlign=middle;resizable=0;points=[];autosize=1;strokeColor=none;fillColor=none;" vertex="1" parent="1">
          <mxGeometry x="394" y="440" width="70" height="30" as="geometry" />
        </mxCell>
        <mxCell id="lGUv_89maZl6cJJZqPwt-33" value="GUARDA" style="text;html=1;align=center;verticalAlign=middle;resizable=0;points=[];autosize=1;strokeColor=none;fillColor=none;" vertex="1" parent="1">
          <mxGeometry x="320" y="330" width="70" height="30" as="geometry" />
        </mxCell>
        <mxCell id="lGUv_89maZl6cJJZqPwt-35" value="PUBLICA" style="text;html=1;align=center;verticalAlign=middle;resizable=0;points=[];autosize=1;strokeColor=none;fillColor=none;" vertex="1" parent="1">
          <mxGeometry x="650" y="250" width="70" height="30" as="geometry" />
        </mxCell>
        <mxCell id="lGUv_89maZl6cJJZqPwt-36" value="MARCA PARA&lt;div&gt;&amp;nbsp;COREGIR&lt;/div&gt;" style="text;html=1;align=center;verticalAlign=middle;resizable=0;points=[];autosize=1;strokeColor=none;fillColor=none;" vertex="1" parent="1">
          <mxGeometry x="610" y="330" width="100" height="40" as="geometry" />
        </mxCell>
      </root>
    </mxGraphModel>
  </diagram>
</mxfile>
